<svg xmlns="http://www.w3.org/2000/svg" xmlns:xlink="http://www.w3.org/1999/xlink" viewBox="0,0,256,256" width="50px" height="50px"><g fill="#ffffff" fill-rule="nonzero" stroke="none" stroke-width="1" stroke-linecap="butt" stroke-linejoin="miter" stroke-miterlimit="10" stroke-dasharray="" stroke-dashoffset="0" font-family="none" font-weight="none" font-size="none" text-anchor="none" style="mix-blend-mode: normal"><g transform="scale(5.12,5.12)"><path d="M25.74609,1.5c-0.02999,-0.00005 -0.05997,0.00126 -0.08984,0.00391c-0.02287,0.00182 -0.04567,0.00443 -0.06836,0.00781c-0.04352,0.00627 -0.08659,0.01541 -0.12891,0.02734c-0.02776,0.00857 -0.05513,0.01834 -0.08203,0.0293c-0.00522,0.00191 -0.01043,0.00386 -0.01562,0.00586c-0.0178,0.0073 -0.03539,0.01512 -0.05273,0.02344c-0.01249,0.0056 -0.02486,0.01147 -0.03711,0.01758c-0.01252,0.0069 -0.02489,0.01406 -0.03711,0.02148c-0.01587,0.00869 -0.0315,0.01781 -0.04687,0.02734c-0.00261,0.00194 -0.00522,0.00389 -0.00781,0.00586c-0.02486,0.01649 -0.04898,0.03409 -0.07227,0.05273c-0.02022,0.0168 -0.03976,0.03439 -0.05859,0.05273c-0.00526,0.0045 -0.01046,0.00906 -0.01562,0.01367c-0.00131,0.0013 -0.00261,0.0026 -0.00391,0.00391l-0.08594,0.08594c-0.08046,0.05937 -0.15157,0.13048 -0.21094,0.21094l-10.95312,10.95313l-11.25,11.25c-0.02335,0.02362 -0.04552,0.04839 -0.06641,0.07422c-0.02151,0.02566 -0.04172,0.05239 -0.06055,0.08008c-0.01835,0.02778 -0.03529,0.05646 -0.05078,0.08594c-0.03087,0.05922 -0.05573,0.12138 -0.07422,0.18555c-0.00944,0.03214 -0.01726,0.06473 -0.02344,0.09766c-0.00616,0.03231 -0.01072,0.0649 -0.01367,0.09766c-0.00302,0.03377 -0.00433,0.06766 -0.00391,0.10156c0.00028,0.02608 0.00159,0.05214 0.00391,0.07813c0.00114,0.01044 0.00244,0.02085 0.00391,0.03125c0.0039,0.02951 0.00911,0.05884 0.01563,0.08789c0.00605,0.02698 0.01322,0.05369 0.02148,0.08008c0.00249,0.0085 0.0051,0.01696 0.00781,0.02539c0.0098,0.02848 0.02088,0.0565 0.0332,0.08398c0.01015,0.02386 0.02123,0.04731 0.0332,0.07031c0.00505,0.00985 0.01025,0.01962 0.01563,0.0293c0.01522,0.02479 0.03151,0.0489 0.04883,0.07227c0,0.00065 0,0.0013 0,0.00195c0.01187,0.01665 0.02424,0.03293 0.03711,0.04883c0.01254,0.01602 0.02557,0.03165 0.03906,0.04688c0.00194,0.00261 0.00389,0.00522 0.00586,0.00781c0.00894,0.00929 0.01805,0.01841 0.02734,0.02734c0.01388,0.01475 0.02821,0.02908 0.04297,0.04297l22.38477,22.38477c0.19762,0.24965 0.50231,0.39029 0.8205,0.37872c0.31819,-0.01157 0.61186,-0.17396 0.79083,-0.43731l20.60352,-22.04883c0.00065,-0.00065 0.0013,-0.0013 0.00195,-0.00195c0.11816,-0.08144 0.21741,-0.18735 0.29102,-0.31055l0.0293,-0.03125c0.13745,-0.1471 0.2273,-0.33225 0.25781,-0.53125c0.03608,-0.23348 -0.01167,-0.47219 -0.13477,-0.67383c-0.035,-0.05663 -0.07556,-0.10963 -0.12109,-0.1582c-0.00065,-0.0013 -0.0013,-0.00261 -0.00195,-0.00391l-21.02734,-22.5c-0.00194,-0.00196 -0.0039,-0.00391 -0.00586,-0.00586c-0.0013,-0.00065 -0.0026,-0.0013 -0.00391,-0.00195c-0.04293,-0.04531 -0.09001,-0.08651 -0.14062,-0.12305c-0.00259,-0.00197 -0.0052,-0.00392 -0.00781,-0.00586c-0.02464,-0.01742 -0.05006,-0.03371 -0.07617,-0.04883c-0.0026,-0.00131 -0.0052,-0.00262 -0.00781,-0.00391c-0.0267,-0.01492 -0.05407,-0.02861 -0.08203,-0.04102c-0.0026,-0.00131 -0.0052,-0.00262 -0.00781,-0.00391c-0.02815,-0.01172 -0.05683,-0.02215 -0.08594,-0.03125c-0.02381,-0.00807 -0.04792,-0.01523 -0.07227,-0.02148c-0.00779,-0.00205 -0.0156,-0.004 -0.02344,-0.00586c-0.00325,-0.00067 -0.00651,-0.00132 -0.00977,-0.00195c-0.00325,-0.00067 -0.00651,-0.00132 -0.00977,-0.00195c-0.02908,-0.00586 -0.05841,-0.01042 -0.08789,-0.01367c-0.03308,-0.00361 -0.06633,-0.00556 -0.09961,-0.00586zM25.16797,5.39258l3.61523,14.74805l-10.96094,-2.48437zM27.28516,5.62305l16.8125,17.99023l-13.13477,-2.97852zM20.71484,8.93555l-5.22266,8.71484l-7.10156,3.60938l6.80273,-6.80273zM17.77539,19.69531l11.53906,2.61523l2.44141,9.96289l-10.9375,-3.18945zM15.70313,19.78711l2.79297,8.62109l-12.55469,-3.66211zM31.49414,22.80469l12.44336,2.82227l-10.1543,6.51758zM6.70313,27.05273l12.53906,3.65625l4.25977,13.14258zM40.56641,30.16602l-10.35547,11.08008l3.60937,-6.75zM21.56445,31.38477l10.08008,2.93945l-5.68164,10.63086z"></path></g></g></svg>